<?xml version="1.0" encoding="iso-8859-1"?>
<!-- Generator: Adobe Illustrator 16.0.0, SVG Export Plug-In . SVG Version: 6.00 Build 0)  -->
<!DOCTYPE svg PUBLIC "-//W3C//DTD SVG 1.1//EN" "http://www.w3.org/Graphics/SVG/1.1/DTD/svg11.dtd">
<svg version="1.1" id="Capa_1" xmlns="http://www.w3.org/2000/svg" xmlns:xlink="http://www.w3.org/1999/xlink" x="0px" y="0px"
	 width="349.75px" height="349.749px" viewBox="0 0 349.75 349.749" style="enable-background:new 0 0 349.75 349.749;"
	 xml:space="preserve">
<g>
	<g>
		<path d="M174.881,0C78.441,0,0,78.441,0,174.875c0,96.434,78.441,174.874,174.887,174.874c96.422,0,174.863-78.44,174.863-174.874
			C349.75,78.441,271.309,0,174.881,0z M127.08,141.626l0.352-0.384c1.426-1.036,2.12-2.657,1.861-4.354
			c-3.522-21.191-1.21-30.027-0.43-32.246c6.155-18.891,25.476-27.628,29.268-29.177c0.808-0.318,2.3-0.769,3.813-1.003l0.451-0.105
			l3.104-0.165l0.024,0.192l0.72-0.069c0.64-0.069,1.252-0.153,2.021-0.315l0.685-0.146c0.606,0.009,8.127,0.96,19.302,4.386
			l7.765,2.672c14.201,4.194,20.734,11.997,21.947,13.57c11.373,12.884,8.322,32.339,5.506,42.784
			c-0.318,1.231-0.126,2.498,0.57,3.549l0.643,0.793c0.823,1.12,1.562,5.438-0.906,14.609c-0.469,2.786-1.501,5.05-3.026,6.575
			c-0.564,0.619-0.961,1.408-1.104,2.3c-3.844,22.533-24.031,47.741-45.315,47.741c-18.06,0-38.671-23.19-42.379-47.723
			c-0.141-0.916-0.522-1.724-1.156-2.417c-1.543-1.601-2.528-3.906-3.122-7.317C125.861,148.958,125.684,143.785,127.08,141.626z
			 M86.539,239.346c0.783-0.991,5.149-6.107,13.979-9.476c7.764-2.385,26.956-8.762,37.446-16.363
			c0.492-0.265,0.976-0.781,1.378-1.189c0.97-1.045,2.453-2.642,4.209-4.27l0.979-0.93l0.997,0.937
			c9.242,8.713,19.467,13.486,28.796,13.486c9.8,0,19.903-4.239,29.241-12.273l0.732-0.625l1.981,0.961
			c1.771,1.621,4.834,3.849,6.257,4.527l1.825,0.89l-0.191,0.197l0.811,0.492c1.723,1.039,3.597,2.048,5.795,3.135
			c2.222,0.979,4.083,1.699,6.004,2.336c1.622,0.528,10.257,3.423,20.08,7.963l1.874,0.564c9.607,3.681,13.871,8.791,14.291,9.325
			c11.403,16.897,15.774,48.429,17.402,65.999c-29.784,24.181-67.242,37.493-105.531,37.493c-38.308,0-75.771-13.312-105.541-37.506
			C70.947,287.498,75.282,256.068,86.539,239.346z"/>
	</g>
</g>
<g>
</g>
<g>
</g>
<g>
</g>
<g>
</g>
<g>
</g>
<g>
</g>
<g>
</g>
<g>
</g>
<g>
</g>
<g>
</g>
<g>
</g>
<g>
</g>
<g>
</g>
<g>
</g>
<g>
</g>
</svg>
